# xmcd
#
# Track frame offsets:
#	150
#	25500
#	51562
#	75011
#	101043
#	124462
#	149036
#	172811
#	198757
#	221230
#
# Disc length: 3230 seconds
#
# Revision: 2
# Processed by: cddbd v1.5.2PL0 Copyright (c) Steve Scherf et al.
# Submitted via: audiograbber 1.83.01
#
DISCID=8a0c9c0a
DTITLE=Ellen and Bernd Marquart - Summer Songs
DYEAR=2003
DGENRE=Jazz
TTITLE0=Summer Songs
TTITLE1=The Girl From Impanema
TTITLE2=Love In The Jungle
TTITLE3=Corcovado
TTITLE4=Recado Bossa Nova
TTITLE5=This Is Always
TTITLE6=Summertime
TTITLE7=Homeland
TTITLE8=Grill Party
TTITLE9=Too Darn Hot
EXTD=YEAR: 2003
EXTT0=
EXTT1=
EXTT2=
EXTT3=
EXTT4=
EXTT5=
EXTT6=
EXTT7=
EXTT8=
EXTT9=
PLAYORDER=
